<svg width="97" height="30" viewBox="0 0 97 30" fill="none" xmlns="http://www.w3.org/2000/svg">
<g clip-path="url(#clip0_5572_26752)">
<path d="M11.9126 1.13736C15.828 1.13736 18.702 1.93406 20.5347 3.48764C22.3674 5.04121 23.3255 7.11264 23.3255 9.66208C23.3255 11.3352 22.659 12.8488 21.4094 14.1634C20.1182 15.478 18.3688 16.3146 16.1612 16.6332C15.828 16.7129 15.7031 16.8723 15.7031 17.1512C15.7031 17.5096 15.828 17.669 16.1612 17.669C17.4107 17.7486 18.4521 17.9876 19.2019 18.3859C19.9516 18.7844 20.5347 19.2624 20.8679 19.7802C21.2012 20.2981 21.5344 20.9354 21.8259 21.6923L24.4762 28.6999C24.5649 28.9341 24.3828 29.1814 24.1216 29.1814H18.3673C18.1963 29.1814 18.0466 29.0716 18.0029 28.9139L16.4944 23.4849C16.1612 22.3695 15.828 21.4931 15.4532 20.8557C15.0366 20.2582 14.4534 19.7802 13.6203 19.4616C12.7873 19.1428 11.6627 18.9835 10.1632 18.9835H5.66475V28.8219C5.66475 29.0204 5.49598 29.1814 5.28781 29.1814H0.376943C0.168764 29.1814 0 29.0204 0 28.8219V1.49686C0 1.29832 0.168764 1.13736 0.376943 1.13736H11.9126ZM15.828 13.2473C17.0359 12.4506 17.6607 11.4547 17.6607 10.2198C17.6607 8.86539 17.2025 7.78983 16.2862 6.99314C15.3698 6.23626 14.1202 5.83792 12.5374 5.83792H5.66475V14.4423H11.3712C13.1205 14.4423 14.5784 14.044 15.828 13.2473Z" fill="black"/>
<path d="M28.7923 27.2294C27.3761 25.7156 26.6681 23.5247 26.6681 20.5769V8.50786C26.6681 8.30931 26.8368 8.14836 27.045 8.14836H31.6226C31.8308 8.14836 31.9996 8.30931 31.9996 8.50786V18.8242C31.9996 21.1346 32.2911 22.6882 32.9576 23.5646C33.5824 24.4409 34.6237 24.8792 36.0815 24.8792C37.0811 24.8792 38.0392 24.5604 38.9555 23.8434C39.8719 23.1663 40.5801 22.2102 41.1632 20.9354C41.7046 19.7005 41.9962 18.3064 41.9962 16.7129V8.50786C41.9962 8.30931 42.165 8.14836 42.3732 8.14836H46.9508C47.159 8.14836 47.3277 8.30931 47.3277 8.50786V28.8219C47.3277 29.0204 47.159 29.1814 46.9508 29.1814H42.3732C42.165 29.1814 41.9962 29.0204 41.9962 28.8219V27.8668C41.9962 27.3091 42.0378 26.7913 42.1628 26.3928C42.2461 25.9945 42.4127 25.5165 42.6627 24.9986C42.7876 24.6799 42.8709 24.4409 42.8709 24.3612C42.8709 24.1223 42.746 24.0027 42.5376 23.9629H42.4127C42.2044 23.9629 42.0378 24.1223 41.9129 24.4409C41.2048 25.7953 40.2468 26.9505 38.9971 27.9863C37.7476 29.022 36.2898 29.5 34.582 29.5C32.1245 29.5 30.2085 28.7431 28.7923 27.2294Z" fill="black"/>
<path d="M56.6134 0.5C56.8216 0.5 56.9904 0.660956 56.9904 0.859504V28.8219C56.9904 29.0204 56.8216 29.1814 56.6134 29.1814H52.0359C51.8277 29.1814 51.6589 29.0204 51.6589 28.8219V0.859504C51.6589 0.660956 51.8277 0.5 52.0359 0.5H56.6134Z" fill="black"/>
<path d="M80.8828 19.9396H64.8881C65.0547 21.5329 65.6796 22.8077 66.7209 23.6841C67.7206 24.6003 69.095 25.0384 70.7611 25.0384C72.9233 25.0384 74.354 24.0814 75.1276 22.0967C75.1842 21.9516 75.3275 21.8517 75.4899 21.8517H80.1701C80.409 21.8517 80.5879 22.0609 80.5316 22.2822C79.9945 24.3956 78.9453 26.122 77.3839 27.4285C75.7178 28.8228 73.5103 29.5 70.7195 29.5C68.387 29.5 66.4293 29.0618 64.7632 28.1057C63.0971 27.1896 61.8058 25.9148 60.9728 24.2816C60.0982 22.6483 59.6816 20.7762 59.6816 18.6648C59.6816 16.5138 60.0982 14.6017 61.0145 12.9684C61.8891 11.3352 63.1387 10.0604 64.8048 9.18406C66.471 8.30769 68.387 7.82967 70.6362 7.82967C72.4273 7.82967 74.0934 8.22802 75.6762 8.94505C77.259 9.66208 78.5086 10.8173 79.5082 12.4107C80.5079 14.0042 81.0077 15.9958 81.0077 18.3859C81.0077 18.8242 80.9661 19.3421 80.8828 19.9396ZM75.6762 16.4341C75.5512 15.1195 75.0931 14.044 74.26 13.2074C73.427 12.4107 72.2607 11.9725 70.8028 11.9725C67.6373 11.9725 65.7213 13.4862 65.0964 16.4341H75.6762Z" fill="black"/>
<path d="M88.6278 12.6497C88.7111 12.6497 88.836 12.6099 88.9193 12.5302C89.0026 12.4506 89.0444 12.331 89.0859 12.2514C89.5859 11.1758 90.0857 10.3393 90.6272 9.70193C91.127 9.1044 91.9184 8.62638 92.9181 8.30769C93.8446 8.01232 95.0574 7.85384 96.6228 7.83223C96.831 7.82935 97 7.99063 97 8.18917V12.6487C97 12.8473 96.8313 13.0067 96.6233 12.9978C96.346 12.9861 96.0134 12.9684 95.6254 12.9684C93.1263 12.9684 91.4186 13.5262 90.4605 14.6415C89.4609 15.7569 89.0026 17.5495 89.0026 20.0591V28.8219C89.0026 29.0204 88.8339 29.1814 88.6257 29.1814H84.0481C83.8399 29.1814 83.6712 29.0204 83.6712 28.8219V8.50786C83.6712 8.30931 83.8399 8.14836 84.0481 8.14836H88.6257C88.8339 8.14836 89.0026 8.30931 89.0026 8.50786V9.30357C89.0026 10.1401 88.7945 10.9368 88.3779 11.7335C88.2529 11.9725 88.2113 12.1319 88.2113 12.2514C88.2113 12.4904 88.3362 12.6099 88.5861 12.6497H88.6278Z" fill="black"/>
</g>
<defs>
<clipPath id="clip0_5572_26752">
<rect width="97" height="30" fill="white"/>
</clipPath>
</defs>
</svg>
