<svg xmlns="http://www.w3.org/2000/svg" width="24" height="24" fill="none">
  <path fill="#000" d="M15.606 17.8999c.1105 0 .2011.0899.1953.2002-.1042 2.0055-1.7635 3.5996-3.7949 3.5996-2.03143 0-3.6907-1.5941-3.79491-3.5996-.00571-.1103.08486-.2002.19532-.2002H15.606ZM12.0064 2.30029c3.3286.00004 6.0186 2.713 6.0186 6.04981v2.8643c.0001.0369.0108.074.0302.1054l2.2442 3.5518c.5255.8321-.0725 1.9174-1.0567 1.918l-14.48433.0039c-.97989.0003-1.57964-1.0754-1.06348-1.9082l2.26368-3.6495c.01884-.031.02918-.0671.02929-.1035V8.3501c0-3.33684 2.68994-6.04981 6.01854-6.04981Z"/>
</svg>
