<svg xmlns="http://www.w3.org/2000/svg" width="24" height="24" fill="none">
  <path fill="#000" d="M12 2c5.5228 0 10 4.47715 10 10 0 5.5228-4.4772 10-10 10-5.52274-.0001-10-4.4772-10-10C2 6.47723 6.47726 2.00013 12 2Zm4.3594 6.39453c-.4171-.30677-.994-.24206-1.334.13379l-.0645.0791-3.79 5.15238-2.22363-2.2237-.07618-.0683c-.39273-.3203-.97177-.2977-1.33789.0683-.3661.3661-.38868.9452-.06836 1.3379l.06836.0762 3.0469 3.0469c.206.2058.4918.3119.7822.29.2905-.0221.5578-.1696.7305-.4043l4.4795-6.08983.0556-.08594c.2574-.43635.1481-1.00562-.2685-1.3125Z"/>
</svg>
