<svg xmlns="http://www.w3.org/2000/svg" width="25" height="24" fill="none">
  <path fill="#000" fill-rule="evenodd" d="M12.4971 2c5.5228 0 10 4.47715 10 10 0 5.5228-4.4772 10-10 10-5.52277-.0001-10.00003-4.4772-10.00003-10 0-5.52277 4.47726-9.99987 10.00003-10ZM12.5 15.0654c-.631 0-1.1425.5117-1.1426 1.1426 0 .631.5116 1.1426 1.1426 1.1426s1.1426-.5116 1.1426-1.1426c-.0001-.6309-.5116-1.1426-1.1426-1.1426Zm0-8.60837c-.5523 0-1 .44772-1 1V13c0 .5523.4477 1 1 1 .5177 0 .9438-.3933.9951-.8975L13.5 13V7.45703c0-.55228-.4477-1-1-1Z" clip-rule="evenodd"/>
</svg>
