<svg xmlns="http://www.w3.org/2000/svg" width="24" height="24" fill="none">
  <path fill="#000" d="M12 2c5.5228 0 10 4.47715 10 10 0 5.5228-4.4772 10-10 10-5.52273-.0001-10-4.4772-10-10C2 6.47723 6.47727 2.00013 12 2Zm-.002 7.75c-.5176 0-.9437.3934-.9951.8975l-.0049.1025v5.793c0 .5521.447.9997.9991 1 .5523 0 1.0009-.4477 1.0009-1V10.75c0-.5521-.4479-.99974-1-1Zm0-3.10059c-.631 0-1.1425.51155-1.1425 1.14258.0001.63078.5108 1.14232 1.1416 1.14258.6309 0 1.1434-.51163 1.1435-1.14258 0-.63086-.5117-1.14231-1.1426-1.14258Z"/>
</svg>
