<svg xmlns="http://www.w3.org/2000/svg" width="24" height="24" fill="none">
  <path fill="#000" fill-rule="evenodd" d="M12.0005 2.04639c3.4204.00013 6.1941 2.77297 6.1943 6.19336v1.05859h1.0303c.5742 0 1.0398.46585 1.04 1.04006v10.5752c0 .5744-.4656 1.04-1.04 1.04H4.7749c-.5742-.0002-1.04004-.4658-1.04004-1.04V10.3384c.00023-.57408.46598-1.03986 1.04004-1.04006h1.03223V8.23975c.00022-3.42038 2.77297-6.19321 6.19337-6.19336Zm-.0156 10.22951c-.5523 0-1 .4477-1 1v1.6328l.0048.1025c.0515.504.4776.8975.9952.8975.5175 0 .9436-.3935.9951-.8975l.0049-.1025v-1.6328c0-.5523-.4478-1-1-1Zm.0156-8.22951c-2.31583.00015-4.19315 1.87755-4.19337 4.19336v1.05859h8.38767V8.23975c-.0002-2.31582-1.8785-4.19323-4.1943-4.19336Z" clip-rule="evenodd"/>
</svg>
