<svg xmlns="http://www.w3.org/2000/svg" width="24" height="24" fill="none">
  <path fill="#000" fill-rule="evenodd" d="M22 12c0-5.52285-4.4772-10-10-10-5.52274.00013-10 4.47723-10 10 0 5.5228 4.47726 9.9999 10 10 5.5228 0 10-4.4772 10-10ZM8.62247 7.49089c.1749.02504.34447.09645.48886.21419l.07617.06836L12 10.5859l2.8125-2.81246.0762-.06836c.1437-.11724.3124-.18854.4865-.21387l.02-.01998.0155.01546c.2908-.03179.5928.06376.8159.28675.2233.22341.3188.52609.2866.81736l.0126.01262-.0163.01621c-.0246.17591-.0962.34653-.2146.4917l-.0683.07617L13.4141 12l2.8125 2.8125.0683.0752c.1151.141.1859.306.2125.4766l.0187.0187-.0141.0141c.0361.295-.0591.6031-.2854.8295-.226.2259-.5334.3211-.828.2855l-.0031.0031-.0039-.004c-.1803-.023-.3555-.0951-.5039-.2163l-.0752-.0683L12 13.4141l-2.8125 2.8125-.0752.0683c-.14905.1217-.32507.1938-.50614.2166l-.01944.0194-.0156-.0156c-.28524.0257-.57943-.0705-.79768-.2887-.21857-.2187-.31476-.5135-.28858-.7992l-.02868-.0287.03686-.0368c.02689-.1698.09757-.3339.21204-.4742l.06836-.0752L10.5859 12 7.77344 9.1875l-.06836-.07617c-.11783-.1445-.18924-.31423-.21421-.4893l-.03438-.03433.0275-.02755c-.02249-.28173.07396-.57114.28945-.78671.21521-.21522.50402-.3117.78531-.28961l.02829-.02832.03543.03538Z" clip-rule="evenodd"/>
</svg>
