<svg xmlns="http://www.w3.org/2000/svg" width="24" height="24" fill="none">
  <path fill="#000" fill-rule="evenodd" d="M12.2958 2.75001c-1.6478-.002-3.26373.45738-4.67344 1.3269-1.40966.8695-2.55885 2.11554-3.3259 3.60189-.76698 1.48622-1.12355 3.1576-1.03254 4.8344.09101 1.6768.62629 3.2979 1.54995 4.6884.92375 1.3907 2.20156 2.4989 3.69758 3.203 1.49615.7041 3.15255.9765 4.79005.7867 1.6374-.1898 3.1915-.8341 4.4951-1.8615 1.3034-1.0272 2.3067-2.398 2.9041-3.9632.0848-.2221.0592-.4712-.0688-.6715-.1281-.2002-.3435-.3279-.5807-.3442-1.9035-.1303-3.6912-.9998-4.998-2.4378-1.3069-1.4382-2.0337-3.33667-2.0275-5.31003.0068-.97053.1899-1.93087.5396-2.83169.0895-.23073.0595-.49079-.0803-.69503-.1398-.20423-.3714-.32634-.6189-.32634h-.5703Zm4.5723 15.40169c.8373-.6599 1.5287-1.4917 2.0316-2.4396-1.8944-.3609-3.6344-1.3352-4.9566-2.7902-1.5626-1.7195-2.4252-3.98149-2.4174-6.32522v-.00267c.0054-.78815.1088-1.57104.3066-2.33-1.2063.0747-2.38077.44704-3.42247 1.08957-1.1745.72445-2.13658 1.76555-2.7804 3.01312-.6439 1.2477-.94434 2.6534-.86772 4.0652.07663 1.4118.52728 2.774 1.30163 3.9398.77425 1.1656 1.84215 2.0899 3.08682 2.6756 1.24454.5857 2.61994.8114 3.97864.654 1.3588-.1575 2.6518-.6925 3.7393-1.5496Z" clip-rule="evenodd"/>
</svg>
