<svg xmlns="http://www.w3.org/2000/svg" width="24" height="24" fill="none">
  <path fill="#000" d="M12 20c-.4031 0-.75.3133-.75.7164V22c0 .4142.3358.75.75.75s.75-.3358.75-.75v-1.2836c0-.4031-.3469-.7164-.75-.7164ZM6.49058 18.8147c.28912-.2891.25958-.7643-.03512-1.0477-.28622-.2753-.7446-.2939-1.02539-.0131l-.74898.749c-.2929.2929-.2929.7677 0 1.0606.29289.2929.76777.2929 1.06066 0l.74883-.7488ZM3.28362 12.75C3.68668 12.75 4 12.4031 4 12s-.31332-.75-.71638-.75H2c-.41421 0-.75.3358-.75.75s.33579.75.75.75h1.28362ZM5.29013 6.38351c.28551.2855.7534.26078 1.03816-.02547.28365-.28514.30692-.75078.02252-1.03517l-.60906-.60907c-.29289-.29289-.76777-.29289-1.06066 0s-.29289.76777 0 1.06066l.60904.60905ZM11.25 3.28362c0 .40306.3469.71638.75.71638s.75-.31332.75-.71638V2c0-.41421-.3358-.75-.75-.75s-.75.33579-.75.75v1.28362ZM17.7539 5.43007c-.2808.28079-.2622.73917.0131 1.02539.2834.2947.7586.32424 1.0477.03512l.7156-.71563c.2929-.29289.2929-.76777 0-1.06066s-.7677-.29289-1.0606 0l-.7158.71578ZM20.7164 11.25c-.4031 0-.7164.3469-.7164.75s.3133.75.7164.75H22c.4142 0 .75-.3358.75-.75s-.3358-.75-.75-.75h-1.2836ZM18.6771 17.6492c-.2844-.2844-.75-.2611-1.0351.0225-.2863.2848-.311.7527-.0255 1.0382l.8532.8531c.2929.2929.7677.2929 1.0606 0 .2929-.2928.2929-.7677 0-1.0606l-.8532-.8532Z"/>
  <path fill="#000" fill-rule="evenodd" d="M12 6.75c-2.89949 0-5.25 2.35051-5.25 5.25 0 2.8995 2.35051 5.25 5.25 5.25 2.8995 0 5.25-2.3505 5.25-5.25 0-2.89949-2.3505-5.25-5.25-5.25ZM5.25 12c0-3.72792 3.02208-6.75 6.75-6.75 3.7279 0 6.75 3.02208 6.75 6.75 0 3.7279-3.0221 6.75-6.75 6.75-3.72792 0-6.75-3.0221-6.75-6.75Z" clip-rule="evenodd"/>
</svg>
